<?xml version="1.0" encoding="utf-8"?>
<svg xmlns="http://www.w3.org/2000/svg" viewBox="0 0 500 500" xmlns:bx="https://boxy-svg.com">
  <path d="M240.721 52.916c-15.278-.583-20.622 10.315-20.69 18.146-.058 6.666 3.741 17.266 14.307 20.72 0 0-.3 18.6-1.2 18.7-18.2.9-41.8 3.8-52.5 6.5-14.4 3.5-28.52 11.564-37.5 17.8-1.781 1.236-14.732 16.067-17 21.9-3.857 9.919-6.2 15.3-5.9 52.7.2 40 .6 44.3 5.6 55.5.8 1.7 1.9 4.3 2.4 5.8 1.7 4.5 9.8 15.3 14.8 19.6 2.5 2.2 8.4 6 13.1 8.3 8.5 4.2 8.9 4.3 18.7 4.3 5.5 0 12.3-.6 15-1.2 2.8-.7 10.4-1.5 16.9-1.8s12.2-.8 12.6-1c.5-.3 10.9-.5 23.2-.5 20.4 0 40.7 1.2 64.3 4 5 .6 11.5.8 14.5.4 11.8-1.4 26.9-11.3 34.5-22.8 5-7.6 8.7-15.5 8.1-17.2-.3-.8-2.2-2.1-4.1-3-6.5-2.7-13.1-10.2-16.8-19.4-4.8-11.5-6.1-29.5-3-41 3.7-13.6 17.922-26.186 22.4-29.1 2.015-1.311 4.3-1.8 4.5-2.4.8-1.9-3.7-12.6-8.1-19.5-4.3-6.7-12.1-14.5-19.1-19.1-6.6-4.3-13.9-7.5-16.4-8.5-8-2.9-23-5.9-38-7.4-5.2-.6-40.5-3.2-40.5-3.2l.2-18.2c3.6.401 15.06-8.09 14.302-20.006-.495-7.771-5.004-18.54-18.619-19.06" style="stroke-width:.1"/>
  <path d="M187.338 137.982c-3.6.8-8.7 1.9-11.5 2.5-5.9 1.2-14.5 4.5-19.5 7.3-7.2 4.1-16.7 12.6-18.9 17.1-5.3 10.7-6.1 16.2-6.1 39.9 0 23.4.7 28.3 5.5 38.1 7.9 16 24.3 26.6 38.9 25.2 3.3-.4 10.4-1.1 15.6-1.6 20.1-2.2 43.7-2.4 64.5-.6 11 1 29.084 1.439 31.021 1.382 12.743-.376 25.462-9.522 31.879-22.182 5.5-10.8 6.6-17.9 6.6-41.7 0-22.6-1.1-29.7-5.7-38.2-4.8-8.8-17.5-18.8-27.8-22-12.9-4-23.8-5.8-38.5-6.3l-51.999-.3 51.942.45-51.943-.45c-4.1 0-10.4.7-14 1.4" style="stroke-width:.1;fill:#fff"/>
  <path d="M361.838 178.382c-2.2 1.1-5.056 3.723-6.9 5.5-3.534 3.406-7.762 12.704-9.089 18.8-2.331 10.71-1.711 18.846.089 26.8 2.626 11.603 9.1 19.7 16.3 23.8 3.9 2.2 13.2 2.6 15.6.7 2-1.6 2-1.7.1-2.9-1.1-.7-2.8-2-3.8-3-1-.9-6.6-6.3-9.5-11.2-3.8-6.4-5.7-17.1-4.8-26.2.4-3.7.476-4.84 2.7-11.7 3.391-6.603 4-8.5 7-11.7 1.2-1.4 4-3.6 6.1-4.8 2-1.3 3.7-2.7 3.7-3.1 0-3.4-11.5-4-17.5-1" fill="#000" stroke="none" style="stroke-width:.1" id="object-0"/>
  <path d="M382.838 184.082c-2.285.505-6.287 2.744-8.8 5.3-4.003 4.071-8.685 11.258-9.3 22.7-.519 9.661 2.9 23.1 9.1 29.7 1.2 1.3 3.89 4.13 6.8 5.1 7.5 2.5 12.228 1.842 17.528-3.558 4.855-4.947 8.224-12.149 9.172-22.942.547-6.228.542-7.92-.158-13.9-1.969-16.814-13.842-25-24.342-22.4m-276.4 5c-2.4 2.6-5 6.3-5.8 8.2-6.7 16.1-3.6 36 7.2 45.8 7.6 7 7.6 7.3 7.3-27.5-.3-29.8-.4-30.7-2.3-31-1.3-.2-3.5 1.4-6.4 4.5" style="stroke-width:.1"/>
  <text style="font-family: Chewy; font-size: 117px; white-space: pre;" x="64.048" y="398.818">Pixx.bot</text>
  <defs>
    <style bx:fonts="Chewy">@import url(https://fonts.googleapis.com/css2?family=Chewy%3Aital%2Cwght%400%2C400&amp;display=swap);</style>
  </defs>
  <ellipse style="fill:#2d8cc5" cx="262.084" cy="208.266" rx="18.427" ry="32.769"/>
  <ellipse style="stroke-width:1;fill:#2d8cc5" cx="185.382" cy="208.714" rx="18.427" ry="32.769"/>
</svg>