<?xml version="1.0" encoding="utf-8"?>
<svg xmlns="http://www.w3.org/2000/svg" viewBox="0 0 500 500">
  <path d="M240.721 52.916c-15.278-.583-20.622 10.315-20.69 18.146-.058 6.666 3.741 17.266 14.307 20.72 0 0-.3 18.6-1.2 18.7-18.2.9-41.8 3.8-52.5 6.5-14.4 3.5-28.52 11.564-37.5 17.8-1.781 1.236-14.732 16.067-17 21.9-3.857 9.919-6.2 15.3-5.9 52.7.2 40 .6 44.3 5.6 55.5.8 1.7 1.9 4.3 2.4 5.8 1.7 4.5 9.8 15.3 14.8 19.6 2.5 2.2 8.4 6 13.1 8.3 8.5 4.2 8.9 4.3 18.7 4.3 5.5 0 12.3-.6 15-1.2 2.8-.7 10.4-1.5 16.9-1.8s12.2-.8 12.6-1c.5-.3 10.9-.5 23.2-.5 20.4 0 40.7 1.2 64.3 4 5 .6 11.5.8 14.5.4 11.8-1.4 26.9-11.3 34.5-22.8 5-7.6 8.7-15.5 8.1-17.2-.3-.8-2.2-2.1-4.1-3-6.5-2.7-13.1-10.2-16.8-19.4-4.8-11.5-6.1-29.5-3-41 3.7-13.6 17.922-26.186 22.4-29.1 2.015-1.311 4.3-1.8 4.5-2.4.8-1.9-3.7-12.6-8.1-19.5-4.3-6.7-12.1-14.5-19.1-19.1-6.6-4.3-13.9-7.5-16.4-8.5-8-2.9-23-5.9-38-7.4-5.2-.6-40.5-3.2-40.5-3.2l.2-18.2c3.6.401 15.06-8.09 14.302-20.006-.495-7.771-5.004-18.54-18.619-19.06" style="stroke-width:.1"/>
  <path d="M187.338 137.982c-3.6.8-8.7 1.9-11.5 2.5-5.9 1.2-14.5 4.5-19.5 7.3-7.2 4.1-16.7 12.6-18.9 17.1-5.3 10.7-6.1 16.2-6.1 39.9 0 23.4.7 28.3 5.5 38.1 7.9 16 24.3 26.6 38.9 25.2 3.3-.4 10.4-1.1 15.6-1.6 20.1-2.2 43.7-2.4 64.5-.6 11 1 29.084 1.439 31.021 1.382 12.743-.376 25.462-9.522 31.879-22.182 5.5-10.8 6.6-17.9 6.6-41.7 0-22.6-1.1-29.7-5.7-38.2-4.8-8.8-17.5-18.8-27.8-22-12.9-4-23.8-5.8-38.5-6.3l-51.999-.3 51.942.45-51.943-.45c-4.1 0-10.4.7-14 1.4" style="stroke-width:.1;fill:#fff"/>
  <path d="M361.838 178.382c-2.2 1.1-5.056 3.723-6.9 5.5-3.534 3.406-7.762 12.704-9.089 18.8-2.331 10.71-1.711 18.846.089 26.8 2.626 11.603 9.1 19.7 16.3 23.8 3.9 2.2 13.2 2.6 15.6.7 2-1.6 2-1.7.1-2.9-1.1-.7-2.8-2-3.8-3-1-.9-6.6-6.3-9.5-11.2-3.8-6.4-5.7-17.1-4.8-26.2.4-3.7.476-4.84 2.7-11.7 3.391-6.603 4-8.5 7-11.7 1.2-1.4 4-3.6 6.1-4.8 2-1.3 3.7-2.7 3.7-3.1 0-3.4-11.5-4-17.5-1" stroke="none" style="stroke-width:.1" id="object-0" fill="#000"/>
  <path d="M382.838 184.082c-2.285.505-6.287 2.744-8.8 5.3-4.003 4.071-8.685 11.258-9.3 22.7-.519 9.661 2.9 23.1 9.1 29.7 1.2 1.3 3.89 4.13 6.8 5.1 7.5 2.5 12.228 1.842 17.528-3.558 4.855-4.947 8.224-12.149 9.172-22.942.547-6.228.542-7.92-.158-13.9-1.969-16.814-13.842-25-24.342-22.4m-276.4 5c-2.4 2.6-5 6.3-5.8 8.2-6.7 16.1-3.6 36 7.2 45.8 7.6 7 7.6 7.3 7.3-27.5-.3-29.8-.4-30.7-2.3-31-1.3-.2-3.5 1.4-6.4 4.5" style="stroke-width:.1"/>
  <path d="M 120.491 337.576 Q 120.491 343.746 117.806 349.687 Q 115.121 355.629 110.665 360.37 Q 106.209 365.112 100.496 368.14 Q 94.783 371.168 88.728 371.51 Q 88.613 373.567 88.556 376.709 Q 88.499 379.851 88.156 383.279 Q 87.814 386.707 87.185 390.134 Q 86.557 393.562 85.357 396.304 Q 84.157 399.047 82.272 400.76 Q 80.387 402.474 77.645 402.474 Q 74.445 402.474 72.56 400.36 Q 70.675 398.247 69.704 395.276 Q 68.733 392.305 68.39 389.049 Q 68.047 385.793 67.933 383.507 Q 67.704 380.194 67.647 376.995 Q 67.59 373.796 67.59 370.482 Q 67.59 368.997 67.59 364.941 Q 67.59 360.884 67.647 355.686 Q 67.704 350.487 67.819 344.831 Q 67.933 339.175 68.161 334.319 Q 68.39 329.464 68.675 326.036 Q 68.961 322.608 69.418 322.037 Q 69.532 321.922 70.104 321.523 Q 70.675 321.123 71.36 320.723 Q 72.046 320.323 72.617 319.98 Q 73.189 319.637 73.417 319.523 Q 78.673 316.552 84.957 314.381 Q 91.241 312.211 97.411 312.211 Q 102.667 312.211 106.952 314.324 Q 111.236 316.438 114.264 319.923 Q 117.292 323.408 118.892 328.035 Q 120.491 332.663 120.491 337.576 Z M 100.725 340.204 Q 100.725 337.919 99.639 336.205 Q 98.554 334.491 96.04 334.491 Q 93.869 334.491 91.698 335.348 Q 89.527 336.205 87.699 337.119 Q 88.042 341.118 88.328 344.888 Q 88.613 348.659 88.385 352.658 Q 90.213 351.744 92.384 350.544 Q 94.555 349.344 96.383 347.859 Q 98.211 346.374 99.468 344.488 Q 100.725 342.603 100.725 340.204 Z M 142.074 319.066 Q 142.074 320.666 141.217 321.922 Q 140.36 323.179 138.989 324.151 Q 137.618 325.122 136.019 325.636 Q 134.419 326.15 133.048 326.15 Q 130.763 326.15 129.049 325.007 Q 127.335 323.865 127.335 321.465 Q 127.335 319.752 128.192 318.438 Q 129.049 317.124 130.306 316.267 Q 131.563 315.41 133.162 314.953 Q 134.762 314.496 136.247 314.496 Q 138.418 314.496 140.246 315.524 Q 142.074 316.552 142.074 319.066 Z M 142.988 357.914 Q 142.988 359.513 142.988 361.284 Q 142.988 363.055 142.874 364.655 Q 142.76 366.597 142.76 369.854 Q 142.76 373.11 142.531 376.88 Q 142.303 380.651 141.789 384.536 Q 141.275 388.421 140.132 391.62 Q 138.989 394.819 137.104 396.818 Q 135.219 398.818 132.362 398.932 Q 130.192 399.047 128.706 397.218 Q 127.221 395.39 126.25 392.477 Q 125.278 389.563 124.821 385.964 Q 124.364 382.365 124.136 378.994 Q 123.907 375.624 123.907 372.767 Q 123.907 369.911 123.907 368.54 Q 123.907 366.712 123.907 363.341 Q 123.907 359.97 124.136 356.086 Q 124.364 352.201 124.993 348.202 Q 125.621 344.203 126.821 340.889 Q 128.021 337.576 129.963 335.519 Q 131.905 333.463 134.876 333.463 Q 137.961 333.463 139.561 336.547 Q 141.16 339.632 141.96 343.746 Q 142.76 347.859 142.874 351.915 Q 142.988 355.971 142.988 357.914 Z M 199.322 339.861 Q 199.322 341.689 198.637 343.689 Q 197.951 345.688 196.923 347.745 Q 195.894 349.801 194.752 351.687 Q 193.609 353.572 192.695 355.172 Q 190.41 358.828 188.182 362.598 Q 185.954 366.369 183.669 370.025 Q 184.697 371.625 186.525 374.481 Q 188.353 377.338 190.124 380.48 Q 191.895 383.622 193.152 386.707 Q 194.409 389.792 194.409 391.963 Q 194.409 394.019 192.809 395.962 Q 191.21 397.904 188.925 397.904 Q 186.525 397.904 184.069 396.19 Q 181.612 394.476 179.27 392.134 Q 176.928 389.792 174.985 387.221 Q 173.043 384.65 171.672 382.936 Q 170.186 384.536 167.844 387.278 Q 165.502 390.02 162.817 392.648 Q 160.132 395.276 157.504 397.161 Q 154.876 399.047 152.819 399.047 Q 150.42 399.047 149.049 397.333 Q 147.678 395.619 147.678 393.334 Q 147.678 391.048 149.22 387.506 Q 150.763 383.964 152.876 380.194 Q 154.99 376.423 157.104 372.996 Q 159.218 369.568 160.36 367.626 Q 159.218 365.569 157.504 362.198 Q 155.79 358.828 154.247 355.114 Q 152.705 351.401 151.619 347.802 Q 150.534 344.203 150.534 341.803 Q 150.534 339.175 152.134 337.576 Q 153.733 335.976 156.361 335.976 Q 159.218 335.976 161.731 338.204 Q 164.245 340.432 166.416 343.574 Q 168.587 346.716 170.243 350.087 Q 171.9 353.458 172.929 355.629 Q 174.3 353.572 176.756 350.03 Q 179.213 346.488 182.298 343.06 Q 185.383 339.632 188.696 337.119 Q 192.01 334.605 194.98 334.605 Q 196.923 334.605 198.122 336.262 Q 199.322 337.919 199.322 339.861 Z M 250.959 339.861 Q 250.959 341.689 250.274 343.689 Q 249.588 345.688 248.56 347.745 Q 247.532 349.801 246.389 351.687 Q 245.246 353.572 244.332 355.172 Q 242.047 358.828 239.819 362.598 Q 237.591 366.369 235.306 370.025 Q 236.334 371.625 238.162 374.481 Q 239.991 377.338 241.762 380.48 Q 243.533 383.622 244.789 386.707 Q 246.046 389.792 246.046 391.963 Q 246.046 394.019 244.447 395.962 Q 242.847 397.904 240.562 397.904 Q 238.162 397.904 235.706 396.19 Q 233.249 394.476 230.907 392.134 Q 228.565 389.792 226.622 387.221 Q 224.68 384.65 223.309 382.936 Q 221.824 384.536 219.481 387.278 Q 217.139 390.02 214.454 392.648 Q 211.769 395.276 209.141 397.161 Q 206.513 399.047 204.456 399.047 Q 202.057 399.047 200.686 397.333 Q 199.315 395.619 199.315 393.334 Q 199.315 391.048 200.857 387.506 Q 202.4 383.964 204.514 380.194 Q 206.627 376.423 208.741 372.996 Q 210.855 369.568 211.997 367.626 Q 210.855 365.569 209.141 362.198 Q 207.427 358.828 205.885 355.114 Q 204.342 351.401 203.257 347.802 Q 202.171 344.203 202.171 341.803 Q 202.171 339.175 203.771 337.576 Q 205.37 335.976 207.998 335.976 Q 210.855 335.976 213.369 338.204 Q 215.882 340.432 218.053 343.574 Q 220.224 346.716 221.881 350.087 Q 223.537 353.458 224.566 355.629 Q 225.937 353.572 228.393 350.03 Q 230.85 346.488 233.935 343.06 Q 237.02 339.632 240.333 337.119 Q 243.647 334.605 246.618 334.605 Q 248.56 334.605 249.76 336.262 Q 250.959 337.919 250.959 339.861 Z M 270.958 393.334 Q 270.958 394.819 270.272 396.019 Q 269.587 397.218 268.501 398.018 Q 267.416 398.818 266.102 399.275 Q 264.788 399.732 263.417 399.732 Q 261.703 399.732 259.703 399.104 Q 257.704 398.475 256.047 397.333 Q 254.39 396.19 253.248 394.648 Q 252.105 393.105 252.105 391.163 Q 252.105 388.078 254.733 386.535 Q 257.361 384.993 260.103 384.993 Q 261.817 384.993 263.702 385.564 Q 265.588 386.135 267.244 387.221 Q 268.901 388.306 269.929 389.849 Q 270.958 391.391 270.958 393.334 Z M 329.574 361.113 Q 329.574 364.426 329.06 368.597 Q 328.546 372.767 327.46 377.109 Q 326.375 381.451 324.604 385.564 Q 322.833 389.677 320.262 392.934 Q 317.691 396.19 314.321 398.132 Q 310.95 400.075 306.494 400.075 Q 301.81 400.075 297.982 397.904 Q 294.154 395.733 291.412 391.963 Q 291.069 395.047 288.898 397.39 Q 286.728 399.732 283.414 399.732 Q 281.472 399.732 280.158 397.79 Q 278.844 395.847 278.044 392.819 Q 277.244 389.792 276.844 386.135 Q 276.444 382.479 276.33 379.051 Q 276.216 375.624 276.216 372.881 Q 276.216 370.139 276.216 368.997 Q 276.216 365.112 276.273 361.227 Q 276.33 357.342 276.444 353.343 Q 276.444 351.401 276.387 347.516 Q 276.33 343.631 276.444 338.89 Q 276.559 334.148 276.958 329.178 Q 277.358 324.208 278.387 320.094 Q 279.415 315.981 281.243 313.353 Q 283.071 310.725 285.928 310.611 Q 288.213 310.611 289.813 312.211 Q 291.412 313.81 292.498 316.438 Q 293.583 319.066 294.211 322.322 Q 294.84 325.579 295.125 328.835 Q 295.411 332.091 295.468 335.005 Q 295.525 337.919 295.525 339.747 Q 295.525 340.089 295.468 341.289 Q 295.411 342.489 295.411 343.86 Q 295.411 345.231 295.411 346.317 Q 295.411 347.402 295.411 347.516 Q 296.439 345.345 298.382 343.289 Q 300.324 341.232 302.724 339.632 Q 305.123 338.033 307.751 337.005 Q 310.379 335.976 312.778 335.976 Q 317.577 335.976 320.833 338.433 Q 324.09 340.889 326.032 344.66 Q 327.975 348.43 328.774 352.829 Q 329.574 357.228 329.574 361.113 Z M 312.778 364.541 Q 312.778 363.17 312.607 361.57 Q 312.436 359.97 311.807 358.599 Q 311.179 357.228 310.093 356.314 Q 309.008 355.4 307.294 355.4 Q 305.466 355.4 303.695 356.2 Q 301.924 357 300.324 358.256 Q 298.725 359.513 297.354 360.942 Q 295.982 362.37 294.954 363.741 L 293.812 373.91 Q 295.64 376.538 298.268 378.08 Q 300.896 379.623 304.209 379.623 Q 306.723 379.623 308.379 378.023 Q 310.036 376.423 311.007 374.081 Q 311.979 371.739 312.378 369.111 Q 312.778 366.483 312.778 364.541 Z M 358.244 402.131 Q 352.417 402.131 348.075 399.047 Q 343.733 395.962 340.763 391.163 Q 337.792 386.364 336.307 380.48 Q 334.821 374.595 334.821 368.882 Q 334.821 362.827 336.307 356.371 Q 337.792 349.916 340.877 344.603 Q 343.962 339.29 348.761 335.919 Q 353.56 332.548 360.187 332.548 Q 366.585 332.548 371.098 336.033 Q 375.611 339.518 378.354 344.717 Q 381.096 349.916 382.238 356.086 Q 383.381 362.255 383.038 367.74 Q 382.695 373.796 381.153 379.965 Q 379.61 386.135 376.64 391.048 Q 373.669 395.962 369.099 399.047 Q 364.528 402.131 358.244 402.131 Z M 359.387 350.487 Q 357.673 350.487 356.359 352.315 Q 355.045 354.143 354.188 356.771 Q 353.331 359.399 352.874 362.313 Q 352.417 365.226 352.417 367.397 Q 352.417 370.139 352.931 373.339 Q 353.445 376.538 354.359 379.223 Q 355.273 381.908 356.587 383.679 Q 357.901 385.45 359.615 385.45 Q 361.443 385.45 362.757 383.736 Q 364.071 382.022 364.871 379.394 Q 365.671 376.766 366.014 373.624 Q 366.357 370.482 366.357 367.74 Q 366.357 365.226 365.899 362.198 Q 365.442 359.171 364.586 356.543 Q 363.729 353.915 362.415 352.201 Q 361.101 350.487 359.387 350.487 Z M 415.485 402.931 Q 407.372 402.931 402.859 400.818 Q 398.346 398.704 396.118 394.819 Q 393.89 390.934 393.433 385.45 Q 392.976 379.965 392.976 373.224 Q 392.976 367.854 393.319 362.427 Q 393.661 357 394.347 350.83 Q 392.747 350.83 391.833 350.887 Q 390.919 350.944 390.348 350.944 Q 386.692 350.944 384.007 349.344 Q 381.321 347.745 381.321 344.431 Q 381.321 342.375 382.864 340.775 Q 384.406 339.175 386.806 338.033 Q 389.205 336.89 392.005 336.205 Q 394.804 335.519 397.318 335.291 Q 397.318 332.091 397.775 328.207 Q 398.232 324.322 399.431 320.951 Q 400.631 317.581 402.688 315.296 Q 404.744 313.01 407.944 313.01 Q 409.772 313.01 411.2 314.096 Q 412.628 315.181 413.542 316.838 Q 414.456 318.495 414.913 320.551 Q 415.37 322.608 415.37 324.55 Q 415.37 326.836 415.028 329.235 Q 414.685 331.634 413.771 335.176 Q 415.713 334.948 416.399 334.891 Q 417.084 334.834 417.655 334.834 Q 419.598 334.834 421.712 335.176 Q 423.825 335.519 425.596 336.319 Q 427.367 337.119 428.51 338.433 Q 429.653 339.747 429.653 341.575 Q 429.653 343.631 427.996 345.231 Q 426.339 346.831 423.825 347.973 Q 421.312 349.116 418.455 349.744 Q 415.599 350.373 413.085 350.601 Q 412.4 355.286 412.114 359.228 Q 411.828 363.17 411.486 367.169 Q 411.257 369.111 411.086 371.11 Q 410.914 373.11 410.914 375.167 Q 410.914 376.652 411.029 378.651 Q 411.143 380.651 411.828 382.479 Q 412.514 384.307 413.999 385.621 Q 415.485 386.935 418.112 386.935 Q 419.712 386.935 421.426 386.65 Q 423.14 386.364 424.854 386.364 Q 427.824 386.364 429.138 388.421 Q 430.452 390.477 430.452 393.676 Q 430.452 396.076 429.024 397.847 Q 427.596 399.618 425.425 400.703 Q 423.254 401.789 420.569 402.36 Q 417.884 402.931 415.485 402.931 Z" style="text-wrap-mode: nowrap;"/>
  <ellipse style="fill:#2d8cc5" cx="262.084" cy="208.266" rx="18.427" ry="32.769"/>
  <ellipse style="stroke-width:1;fill:#2d8cc5" cx="185.382" cy="208.714" rx="18.427" ry="32.769"/>
</svg>